<mxfile host="app.diagrams.net" agent="Mozilla/5.0 (Macintosh; Intel Mac OS X 10_15_7) AppleWebKit/537.36 (KHTML, like Gecko) Chrome/129.0.0.0 Safari/537.36" version="24.7.16">
  <diagram id="Ht1M8jgEwFfnCIfOTk4-" name="Page-1">
    <mxGraphModel dx="1507" dy="1602" grid="1" gridSize="10" guides="1" tooltips="1" connect="1" arrows="1" fold="1" page="1" pageScale="1" pageWidth="1169" pageHeight="827" math="0" shadow="0">
      <root>
        <mxCell id="0" />
        <mxCell id="1" parent="0" />
        <mxCell id="UEzPUAAOIrF-is8g5C7q-154" value="AWS Cloud" style="points=[[0,0],[0.25,0],[0.5,0],[0.75,0],[1,0],[1,0.25],[1,0.5],[1,0.75],[1,1],[0.75,1],[0.5,1],[0.25,1],[0,1],[0,0.75],[0,0.5],[0,0.25]];outlineConnect=0;gradientColor=none;html=1;whiteSpace=wrap;fontSize=12;fontStyle=0;shape=mxgraph.aws4.group;grIcon=mxgraph.aws4.group_aws_cloud_alt;strokeColor=#232F3E;fillColor=none;verticalAlign=top;align=left;spacingLeft=30;fontColor=#232F3E;dashed=0;labelBackgroundColor=#ffffff;container=1;pointerEvents=0;collapsible=0;recursiveResize=0;" parent="1" vertex="1">
          <mxGeometry x="420" y="-610" width="430" height="320" as="geometry" />
        </mxCell>
        <mxCell id="r9gG5WUatt3OkKWe7rSo-3" value="&lt;span style=&quot;color: rgb(51, 51, 51); font-family: AmazonEmber, &amp;quot;Helvetica Neue&amp;quot;, Helvetica, Arial, sans-serif; font-size: 14px; text-align: start; text-wrap: wrap; background-color: rgb(255, 255, 255);&quot;&gt;Amazon EC2&lt;/span&gt;" style="outlineConnect=0;dashed=0;verticalLabelPosition=bottom;verticalAlign=top;align=center;html=1;shape=mxgraph.aws3.ec2;fillColor=#F58534;gradientColor=none;" vertex="1" parent="UEzPUAAOIrF-is8g5C7q-154">
          <mxGeometry x="300" y="180" width="76.5" height="93" as="geometry" />
        </mxCell>
        <mxCell id="r9gG5WUatt3OkKWe7rSo-2" value="" style="shape=image;html=1;verticalAlign=top;verticalLabelPosition=bottom;labelBackgroundColor=#ffffff;imageAspect=0;aspect=fixed;image=https://cdn2.iconfinder.com/data/icons/crystalproject/128x128/apps/kservices.png" vertex="1" parent="UEzPUAAOIrF-is8g5C7q-154">
          <mxGeometry x="151" y="33" width="128" height="128" as="geometry" />
        </mxCell>
        <mxCell id="r9gG5WUatt3OkKWe7rSo-4" value="Amazon EKS" style="sketch=0;outlineConnect=0;fontColor=#232F3E;gradientColor=none;strokeColor=#ffffff;fillColor=#232F3E;dashed=0;verticalLabelPosition=middle;verticalAlign=bottom;align=center;html=1;whiteSpace=wrap;fontSize=10;fontStyle=1;spacing=3;shape=mxgraph.aws4.productIcon;prIcon=mxgraph.aws4.eks;" vertex="1" parent="UEzPUAAOIrF-is8g5C7q-154">
          <mxGeometry x="40" y="177" width="80" height="100" as="geometry" />
        </mxCell>
        <mxCell id="BD13yI-v0x-tUpziI9p3-9" value="Dashboard / Report" style="verticalLabelPosition=bottom;sketch=0;aspect=fixed;html=1;verticalAlign=top;strokeColor=none;align=center;outlineConnect=0;shape=mxgraph.citrix.reporting;" parent="1" vertex="1">
          <mxGeometry x="960" y="-440" width="160.43" height="180" as="geometry" />
        </mxCell>
        <mxCell id="r9gG5WUatt3OkKWe7rSo-5" value="" style="sketch=0;outlineConnect=0;fontColor=#232F3E;gradientColor=none;fillColor=#232F3D;strokeColor=none;dashed=0;verticalLabelPosition=bottom;verticalAlign=top;align=center;html=1;fontSize=12;fontStyle=0;aspect=fixed;pointerEvents=1;shape=mxgraph.aws4.mobile_client;" vertex="1" parent="1">
          <mxGeometry x="79.5" y="-740" width="41" height="78" as="geometry" />
        </mxCell>
        <mxCell id="r9gG5WUatt3OkKWe7rSo-6" value="" style="sketch=0;outlineConnect=0;fontColor=#232F3E;gradientColor=none;fillColor=#232F3D;strokeColor=none;dashed=0;verticalLabelPosition=bottom;verticalAlign=top;align=center;html=1;fontSize=12;fontStyle=0;aspect=fixed;pointerEvents=1;shape=mxgraph.aws4.mobile_client;" vertex="1" parent="1">
          <mxGeometry x="230" y="-788" width="41" height="78" as="geometry" />
        </mxCell>
        <mxCell id="r9gG5WUatt3OkKWe7rSo-7" value="Company Operated Stores" style="outlineConnect=0;dashed=0;verticalLabelPosition=bottom;verticalAlign=top;align=center;html=1;shape=mxgraph.aws3.generic_database;fillColor=#7D7C7C;gradientColor=none;" vertex="1" parent="1">
          <mxGeometry x="70" y="-280" width="100" height="130" as="geometry" />
        </mxCell>
        <mxCell id="r9gG5WUatt3OkKWe7rSo-8" value="Licensed / Franchise Stores" style="outlineConnect=0;dashed=0;verticalLabelPosition=bottom;verticalAlign=top;align=center;html=1;shape=mxgraph.aws3.generic_database;fillColor=#7D7C7C;gradientColor=none;" vertex="1" parent="1">
          <mxGeometry x="230.5" y="-220" width="100" height="140" as="geometry" />
        </mxCell>
        <mxCell id="r9gG5WUatt3OkKWe7rSo-9" value="" style="sketch=0;outlineConnect=0;fontColor=#232F3E;gradientColor=none;fillColor=#232F3D;strokeColor=none;dashed=0;verticalLabelPosition=bottom;verticalAlign=top;align=center;html=1;fontSize=12;fontStyle=0;aspect=fixed;pointerEvents=1;shape=mxgraph.aws4.mobile_client;" vertex="1" parent="1">
          <mxGeometry x="180" y="-650" width="41" height="78" as="geometry" />
        </mxCell>
        <object placeholders="1" c4Name="" c4Type="ContainerScopeBoundary" c4Application="Mobile Order &amp; Pay App" label="&lt;font style=&quot;font-size: 16px&quot;&gt;&lt;b&gt;&lt;div style=&quot;text-align: left&quot;&gt;%c4Name%&lt;/div&gt;&lt;/b&gt;&lt;/font&gt;&lt;div style=&quot;text-align: left&quot;&gt;[%c4Application%]&lt;/div&gt;" id="r9gG5WUatt3OkKWe7rSo-11">
          <mxCell style="rounded=1;fontSize=11;whiteSpace=wrap;html=1;dashed=1;arcSize=20;fillColor=none;strokeColor=#666666;fontColor=#333333;labelBackgroundColor=none;align=left;verticalAlign=bottom;labelBorderColor=none;spacingTop=0;spacing=10;dashPattern=8 4;metaEdit=1;rotatable=0;perimeter=rectanglePerimeter;noLabel=0;labelPadding=0;allowArrows=0;connectable=0;expand=0;recursiveResize=0;editable=1;pointerEvents=0;absoluteArcSize=1;points=[[0.25,0,0],[0.5,0,0],[0.75,0,0],[1,0.25,0],[1,0.5,0],[1,0.75,0],[0.75,1,0],[0.5,1,0],[0.25,1,0],[0,0.75,0],[0,0.5,0],[0,0.25,0]];" vertex="1" parent="1">
            <mxGeometry x="20" y="-810" width="320" height="300" as="geometry" />
          </mxCell>
        </object>
        <object placeholders="1" c4Name="" c4Type="ContainerScopeBoundary" c4Application="Company Global Databases" label="&lt;font style=&quot;font-size: 16px&quot;&gt;&lt;b&gt;&lt;div style=&quot;text-align: left&quot;&gt;%c4Name%&lt;/div&gt;&lt;/b&gt;&lt;/font&gt;&lt;div style=&quot;text-align: left&quot;&gt;[%c4Application%]&lt;/div&gt;" id="r9gG5WUatt3OkKWe7rSo-12">
          <mxCell style="rounded=1;fontSize=11;whiteSpace=wrap;html=1;dashed=1;arcSize=20;fillColor=none;strokeColor=#666666;fontColor=#333333;labelBackgroundColor=none;align=left;verticalAlign=bottom;labelBorderColor=none;spacingTop=0;spacing=10;dashPattern=8 4;metaEdit=1;rotatable=0;perimeter=rectanglePerimeter;noLabel=0;labelPadding=0;allowArrows=0;connectable=0;expand=0;recursiveResize=0;editable=1;pointerEvents=0;absoluteArcSize=1;points=[[0.25,0,0],[0.5,0,0],[0.75,0,0],[1,0.25,0],[1,0.5,0],[1,0.75,0],[0.75,1,0],[0.5,1,0],[0.25,1,0],[0,0.75,0],[0,0.5,0],[0,0.25,0]];" vertex="1" parent="1">
            <mxGeometry x="20.5" y="-300" width="360" height="280" as="geometry" />
          </mxCell>
        </object>
        <mxCell id="r9gG5WUatt3OkKWe7rSo-13" value="Unified Global Loytalty" style="verticalLabelPosition=bottom;aspect=fixed;html=1;shape=mxgraph.salesforce.personalization;" vertex="1" parent="1">
          <mxGeometry x="960" y="-700" width="133.33" height="100" as="geometry" />
        </mxCell>
        <mxCell id="r9gG5WUatt3OkKWe7rSo-14" value="" style="endArrow=classic;html=1;rounded=0;entryX=0.5;entryY=1;entryDx=0;entryDy=0;" edge="1" parent="1" target="UEzPUAAOIrF-is8g5C7q-154">
          <mxGeometry width="50" height="50" relative="1" as="geometry">
            <mxPoint x="380" y="-150" as="sourcePoint" />
            <mxPoint x="600" y="-440" as="targetPoint" />
            <Array as="points">
              <mxPoint x="635" y="-150" />
            </Array>
          </mxGeometry>
        </mxCell>
        <mxCell id="r9gG5WUatt3OkKWe7rSo-15" value="" style="endArrow=classic;html=1;rounded=0;entryX=0.5;entryY=0;entryDx=0;entryDy=0;" edge="1" parent="1" target="UEzPUAAOIrF-is8g5C7q-154">
          <mxGeometry width="50" height="50" relative="1" as="geometry">
            <mxPoint x="340" y="-680" as="sourcePoint" />
            <mxPoint x="600" y="-500" as="targetPoint" />
            <Array as="points">
              <mxPoint x="635" y="-680" />
            </Array>
          </mxGeometry>
        </mxCell>
        <mxCell id="r9gG5WUatt3OkKWe7rSo-16" value="" style="endArrow=classic;startArrow=classic;html=1;rounded=0;exitX=1;exitY=0.5;exitDx=0;exitDy=0;" edge="1" parent="1" source="UEzPUAAOIrF-is8g5C7q-154">
          <mxGeometry width="50" height="50" relative="1" as="geometry">
            <mxPoint x="890" y="-450" as="sourcePoint" />
            <mxPoint x="950" y="-600" as="targetPoint" />
          </mxGeometry>
        </mxCell>
        <mxCell id="r9gG5WUatt3OkKWe7rSo-17" value="" style="endArrow=classic;startArrow=classic;html=1;rounded=0;exitX=1;exitY=0.5;exitDx=0;exitDy=0;" edge="1" parent="1" source="UEzPUAAOIrF-is8g5C7q-154" target="BD13yI-v0x-tUpziI9p3-9">
          <mxGeometry width="50" height="50" relative="1" as="geometry">
            <mxPoint x="550" y="-370" as="sourcePoint" />
            <mxPoint x="600" y="-420" as="targetPoint" />
          </mxGeometry>
        </mxCell>
      </root>
    </mxGraphModel>
  </diagram>
</mxfile>
